<svg id="Layer_1" data-name="Layer 1" xmlns="http://www.w3.org/2000/svg" viewBox="0 0 904.09 327.3"><defs><style>.cls-1{fill:#231f20;}</style></defs><title>LOGO</title><path class="cls-1" d="M903.44,329.09h5.95a12.11,12.11,0,0,1,2.13.13,4.17,4.17,0,0,1,1.22.41,3.64,3.64,0,0,1,1.48,1.48,4.76,4.76,0,0,1,.5,2.23,4.07,4.07,0,0,1-.53,2.12,3.52,3.52,0,0,1-1.58,1.38,2.14,2.14,0,0,1,1.27.84,4.51,4.51,0,0,1,.48,2l.17,2.53a4.31,4.31,0,0,0,.22,1.22,1.08,1.08,0,0,0,.48.56v.43h-2.4a5.3,5.3,0,0,1-.41-2.05v-.06l-.12-2a2.85,2.85,0,0,0-.66-2,5.06,5.06,0,0,0-2.76-.46h-3.37v6.57h-2.07Zm2,1.8v5.2h3.56a4.48,4.48,0,0,0,2.72-.63,2.48,2.48,0,0,0,.8-2.08,2.24,2.24,0,0,0-.75-1.92,4.84,4.84,0,0,0-2.77-.57Z" transform="translate(-19.09 -23.62)"/><path class="cls-1" d="M909,350.92a14.16,14.16,0,1,1,14.16-14.16A14.17,14.17,0,0,1,909,350.92Zm0-26.32a12.16,12.16,0,1,0,12.16,12.16A12.17,12.17,0,0,0,909,324.6Z" transform="translate(-19.09 -23.62)"/><path d="M422.39,297.09c-.57-.08-.9.47-1.15.78-3.82,4.81-27.57,36.4-58.55,41.52-16.48,3.05-33.52,2.4-49.82-3.15-22.47-7.65-39.51-21.28-45.61-45.07-8.71-34,3.58-60.58,36.26-74.25,16.82-7,34.62-10,52.53-12.67,14.9-2.22,29.9-4.42,44.44-8.2,16.5-4.28,22.56-16.5,20.8-31.85-1.34-11.63-7.73-18.47-18.06-23.06-19.69-8.74-37.18-9.92-57.43-1.74-13.66,5.53-20.39,14.51-23.93,28.5,0,0-41.45-.59-41.31-1.26,7.46-35.83,36.54-62.07,73.72-65.29,18.29-1.59,36.55-1.28,54.26,4.12,27.94,8.52,48,26.4,53.77,56,2.12,10.87,1.93,104.53,2.25,140.2a255.65,255.65,0,0,0,4.7,32.1l-44.88-.19c0-8.17-.67-30.23-1.06-35.07,0-.5-.14-1.25-.81-1.38Zm-1.21-93.46c-2.52,3.45-6.81,10.13-16.45,15.15-14,8.12-29.76,11-45.3,14.41-11.36,2.51-22.73,5.07-33.89,8.28a33.12,33.12,0,0,0-17.4,12.42c-11.55,15.53-4.8,36.17,13.05,46.29,17.1,9.7,34.39,11.52,52.58,5.51C397.14,298,413.92,280,420.16,252.9c3.69-16,3.87-47.61,3.24-49.06C423,203,422.07,202.43,421.18,203.63Z" transform="translate(-19.09 -23.62)"/><path class="cls-1" d="M19.09,334.77V23.62H144.57q48.38,0,72.56,19t24.19,56.82q0,24.3-11.2,41.3t-33.38,26.09q28.09,5.28,43.73,25t15.63,49.95q0,42.68-28.3,67.81t-76.89,25.14Zm42.25-180.4h74.15q32.73,0,48.16-11.83t15.42-37q0-23.65-14.79-35.07t-45.41-11.4H61.34Zm0,142.8H147.1q32.33,0,49-14.26T212.8,241.4q0-27-17-39.71T142.25,189H61.34Z" transform="translate(-19.09 -23.62)"/><path class="cls-1" d="M489.15,261.26h36.54q2.12,23,16.59,34.85t41.08,11.83q24.51,0,38.66-9.61T636.17,272q0-12.46-7.08-19.12T601.53,241.4l-42.46-11q-35.91-8.67-50-22.92t-14.05-40.66q0-30,22.71-47.64T580,101.56q40.35,0,64.22,18.8t23.87,50.49v.84h-37q-1.26-17.94-14.68-27.77T580,134.09q-23,0-35,8t-11.93,23.45q0,11,7.5,17.21t28,10.88l36.76,8.66q39.28,9.3,54.08,23.77t14.78,41.29q0,35.28-24.82,54.82T580,341.74q-43.51,0-66.86-20.7T489.15,261.26Z" transform="translate(-19.09 -23.62)"/><path class="cls-1" d="M853.64,261.68h37.6q-6.12,37.4-32.53,58.94t-66.54,21.54q-47.1,0-74.35-31.68t-27.25-86.4q0-57.87,27-90.41t74.56-32.53q48.8,0,75.52,30t26.72,84.7q0,7-.1,10.35c-.08,2.26-.25,4.44-.53,6.55H730.49q.64,35.7,17.75,55.24t47.52,19.54q23.24,0,38.34-11.94T853.64,261.68ZM730.28,201.06H854.49q-.21-31.69-16.06-48.91t-45-17.21q-28.1,0-44.25,16.9T730.28,201.06Z" transform="translate(-19.09 -23.62)"/></svg>